<?xml version="1.0" encoding="UTF-8" standalone="no"?>
<!-- Created with Inkscape (http://www.inkscape.org/) -->

<svg
   width="100.69589mm"
   height="112.58456mm"
   viewBox="-2 -3 104.48498 116.821"
   version="1.1"
   id="svg5"
   xml:space="preserve"
   inkscape:version="1.2.1 (9c6d41e410, 2022-07-14)"
   sodipodi:docname="icon.svg"
   xmlns:inkscape="http://www.inkscape.org/namespaces/inkscape"
   xmlns:sodipodi="http://sodipodi.sourceforge.net/DTD/sodipodi-0.dtd"
   xmlns="http://www.w3.org/2000/svg"
   xmlns:svg="http://www.w3.org/2000/svg"><sodipodi:namedview
     id="namedview7"
     pagecolor="#ffffff"
     bordercolor="#000000"
     borderopacity="0.25"
     inkscape:showpageshadow="2"
     inkscape:pageopacity="0.0"
     inkscape:pagecheckerboard="0"
     inkscape:deskcolor="#d1d1d1"
     inkscape:document-units="mm"
     showgrid="false"
     inkscape:zoom="0.84096521"
     inkscape:cx="-85.615908"
     inkscape:cy="16.647538"
     inkscape:window-width="2560"
     inkscape:window-height="1506"
     inkscape:window-x="-11"
     inkscape:window-y="-11"
     inkscape:window-maximized="1"
     inkscape:current-layer="layer1" /><defs
     id="defs2" /><g
     inkscape:label="Layer 1"
     inkscape:groupmode="layer"
     id="layer1"
     style="display:none"
     transform="translate(-26.843541,-141.92334)"><path
       d="m 100.55668,81.923065 c -2.658613,0.08655 -3.528003,2.564221 -3.528003,2.564221 0,0 -2.400514,4.938735 -3.289935,6.771698 2.716799,-1.086128 4.815379,-0.73116 6.725328,0.720336 l 3.6119,-7.358559 c 0.62419,-1.360643 -0.71344,-2.48029 -2.96289,-2.681041 -0.19343,-0.02158 -0.37898,-0.02158 -0.55629,-0.0109 z m 10.08411,0.656525 c -2.97766,0.09734 -3.70087,1.807217 -3.70087,1.807217 0,0 -21.512552,43.469093 -22.053929,44.567993 -0.54145,1.10061 -0.141662,1.526 0.241816,1.73908 0.383477,0.21307 0.811854,-0.23904 0.811854,-0.23904 0,0 0.28534,-0.77874 0.96596,-1.68294 0.680639,-0.90421 2.466847,-0.75279 2.466847,-0.75279 0,0 23.144182,1.4039 29.529372,1.33836 0.4073,-0.004 0.78189,-0.0433 1.1426,-0.0866 -0.19216,1.29433 -0.24347,3.28434 -0.0907,5.14791 0.11234,1.36615 0.76384,2.60186 1.25536,3.59193 -4.70113,-0.24334 -25.992093,-1.33791 -28.372871,-1.24219 -2.093018,-0.0433 -3.8587,-0.69655 -3.8587,-0.69655 0,0 -1.05433,-0.43371 -2.829047,-2.17387 -0.240624,0.56783 -0.48867,1.89926 -1.925644,2.55546 -1.412801,0.64462 -2.707828,-0.62731 -3.970216,-2.83938 -1.097414,-2.0815 -1.082873,-4.82797 0.120312,-5.96407 1.203139,-1.13609 2.647223,-0.14168 2.647223,-0.14168 l 5.803321,-11.82173 c -0.449727,-0.71924 -1.339028,-1.32818 -2.51509,-1.62669 -1.897367,-0.29419 -2.880929,0.24011 -4.246604,1.21267 -3.121434,6.40384 -5.606212,11.47734 -5.929635,12.05685 -0.872239,1.56214 -0.395665,5.55286 1.052396,7.98869 1.968766,3.31182 3.54982,4.1893 5.775676,4.8283 2.346113,0.46184 3.283631,-2.27738 3.283631,-2.27738 0,0 0.626026,0.64462 1.738963,1.56754 1.263286,1.17157 2.617149,1.41958 2.617149,1.41958 0,0 30.438536,1.70501 34.048496,1.98904 3.60945,0.28445 4.33121,-2.13095 4.33121,-2.13095 0,0 18.76836,-33.22994 20.5731,-36.35496 1.80473,-3.12492 -1.08245,-3.83325 -1.08245,-3.83325 l -2.60334,0.0866 -0.91709,0.0541 c -1.70611,-2.353734 -1.60331,-5.620339 -1.52471,-7.954619 0.64344,-1.171031 2.18512,-3.995476 2.52067,-4.600727 3.06276,-5.523111 -0.76678,-5.221783 -0.76678,-5.221783 z M 94.857122,94.533263 c -1.455757,0.02158 -3.138157,0.883656 -3.138157,0.883656 -2.304457,4.746421 -5.136363,10.569451 -7.770253,15.980301 1.129925,-0.52025 2.392799,-0.90529 3.466673,-0.70087 1.481488,0.2823 2.542727,0.88041 3.143499,1.45808 l 8.172461,-16.646984 c -0.539526,-0.393698 -2.199823,-1.016694 -3.874223,-0.97451 z m 15.018288,1.000463 16.0792,0.500771 c 0,0 -7.05383,17.003913 -14.54818,17.373053 -5.61592,0.27689 -3.91301,-12.05025 -1.531,-17.874369 z m 32.00955,-0.587297 c 0.19151,3.520767 0.33198,4.847662 2.08972,7.331951 l -19.8048,35.87983 c 0,0 -0.97922,-0.0649 -1.10418,-0.0649 -0.58625,-1.04481 -1.18073,-2.35504 -1.44204,-3.76499 -0.32025,-1.72794 -0.20975,-3.76575 -0.0412,-5.29706 2.99682,-0.85554 3.6587,-3.0849 3.6587,-3.0849 0,0 10.66911,-20.09995 16.64384,-30.997889 z"
       id="path20"
       style="stroke-width:2.63399" /></g><g
     inkscape:groupmode="layer"
     id="layer3"
     inkscape:label="Layer 3"
     style="display:none"
     transform="translate(-26.843541,-141.92334)"><g
       transform="matrix(1.8291885,0,0,2.0017152,-1792.1682,-331.9071)"
       id="g289"><path
         d="m 1045.477,244.36 h -28 v 4.312 c 0,0 0.287,2.688 2.583,2.688 h 29.511 c 0,0 -4.094,-1.54 -4.094,-3.549 z"
         fill="none"
         stroke="#231f20"
         stroke-linecap="round"
         stroke-linejoin="round"
         stroke-width="1"
         id="path273" /><path
         d="m 1049.623,251.5 c 0,0 4.854,0.038 4.854,-7.137 v -31 c 0,0 0.833,-4.011 4.277,-4.011 h -32.668 c 0,0 -3.609,1.141 -3.609,4.3 v 30.7"
         fill="none"
         stroke="#231f20"
         stroke-linecap="round"
         stroke-linejoin="round"
         stroke-width="1"
         id="path275" /><path
         d="m 1054.477,216.36 h 9 v -2.775 c 0,0 -0.386,-4.422 -4.5,-4.422"
         fill="none"
         stroke="#231f20"
         stroke-linecap="round"
         stroke-linejoin="round"
         stroke-width="1"
         id="path277" /><line
         x2="19"
         transform="translate(1028.477,232.36)"
         stroke-width="1"
         stroke="#231f20"
         stroke-linecap="round"
         stroke-linejoin="round"
         fill="none"
         id="line279"
         x1="0"
         y1="0"
         y2="0" /><line
         x2="19"
         transform="translate(1028.477,236.36)"
         stroke-width="1"
         stroke="#231f20"
         stroke-linecap="round"
         stroke-linejoin="round"
         fill="none"
         id="line281"
         x1="0"
         y1="0"
         y2="0" /><line
         x2="19"
         transform="translate(1028.477,224.36)"
         stroke-width="1"
         stroke="#231f20"
         stroke-linecap="round"
         stroke-linejoin="round"
         fill="none"
         id="line283"
         x1="0"
         y1="0"
         y2="0" /><line
         x2="19"
         transform="translate(1028.477,220.36)"
         stroke-width="1"
         stroke="#231f20"
         stroke-linecap="round"
         stroke-linejoin="round"
         fill="none"
         id="line285"
         x1="0"
         y1="0"
         y2="0" /><line
         x2="19"
         transform="translate(1028.477,228.36)"
         stroke-width="1"
         stroke="#231f20"
         stroke-linecap="round"
         stroke-linejoin="round"
         fill="none"
         id="line287"
         x1="0"
         y1="0"
         y2="0" /></g></g><g
     inkscape:groupmode="layer"
     id="layer4"
     inkscape:label="Layer 4"
     style="display:none"
     transform="translate(-26.843541,-141.92334)"><g
       id="g402"
       transform="matrix(1.0421114,0,0,2.0110996,67.179715,58.432107)"><g
         id="g348">
	<path
   d="M 79.712,30.231 V 28.474 L 43.913,16.169 0,41.672 v 0.429 0.895 6.487 1.323 0.433 l 35.799,12.307 43.915,-25.5 V 36.284 L 78.515,35.831 V 30.926 Z M 45.594,17.754 3.854,41.991 2.28,41.45 44.02,17.217 Z M 1.941,43.661 3.038,44.035 v 6.492 L 1.941,50.148 Z m 2.364,7.304 v -6.489 l 2.502,0.859 0.777,0.265 28.212,9.695 36.42,-21.174 0.704,-0.411 4.325,-2.512 v 0.465 3.683 0.68 0.953 0.731 L 35.799,61.786 Z"
   id="path346" />
</g><g
         id="g350">
</g><g
         id="g352">
</g><g
         id="g354">
</g><g
         id="g356">
</g><g
         id="g358">
</g><g
         id="g360">
</g><g
         id="g362">
</g><g
         id="g364">
</g><g
         id="g366">
</g><g
         id="g368">
</g><g
         id="g370">
</g><g
         id="g372">
</g><g
         id="g374">
</g><g
         id="g376">
</g><g
         id="g378">
</g></g></g><g
     inkscape:groupmode="layer"
     id="layer5"
     inkscape:label="Layer 5"
     style="display:none"
     transform="translate(-26.843541,-141.92334)"><g
       id="g421"
       transform="matrix(0.14844481,0,0,0.18531418,67.552685,77.9351)"><path
         d="M 496,400 H 352 V 16 C 352,7.164 344.836,0 336,0 H 16 C 7.164,0 0,7.164 0,16 v 400 c 0,52.938 43.063,96 96,96 h 320 c 52.938,0 96,-43.063 96,-96 0,-8.836 -7.164,-16 -16,-16 z m -336,16 c 0,35.289 -28.711,64 -64,64 -35.289,0 -64,-28.711 -64,-64 V 32 H 320 V 400 H 176 c -8.836,0 -16,7.164 -16,16 z m 256,64 H 167.492 c 11.852,-13.227 20.102,-29.75 23.172,-48 h 287.313 c -7.125,27.57 -32.211,48 -61.977,48 z"
         id="path417" /><path
         d="m 176,288 h -32 c -8.844,0 -16,7.164 -16,16 0,8.836 7.156,16 16,16 h 32 c 26.469,0 48,-21.531 48,-48 0,-12.338 -4.809,-23.488 -12.484,-32 7.676,-8.512 12.484,-19.662 12.484,-32 0,-26.469 -21.531,-48 -48,-48 -8.828,0 -16,-7.18 -16,-16 0,-8.82 7.172,-16 16,-16 h 32 c 8.844,0 16,-7.164 16,-16 0,-8.836 -7.156,-16 -16,-16 h -32 c -26.469,0 -48,21.531 -48,48 0,12.338 4.809,23.488 12.484,32 -7.675,8.512 -12.484,19.662 -12.484,32 0,26.469 21.531,48 48,48 8.828,0 16,7.18 16,16 0,8.82 -7.172,16 -16,16 z m -16,-80 c 0,-8.82 7.172,-16 16,-16 8.828,0 16,7.18 16,16 0,8.82 -7.172,16 -16,16 -8.828,0 -16,-7.18 -16,-16 z"
         id="path419" /></g></g><g
     inkscape:groupmode="layer"
     id="layer6"
     inkscape:label="Layer 6"
     style="display:none"
     transform="translate(-26.843541,-141.92334)"><g
       transform="matrix(1.7490954,0,0,1.9146931,-1707.2884,-306.62869)"
       id="g587"><path
         d="m 1045.477,244.36 h -28 v 4.312 c 0,0 0.287,2.688 2.583,2.688 h 29.511 c 0,0 -4.094,-1.54 -4.094,-3.549 z"
         fill="none"
         stroke="#231f20"
         stroke-linecap="round"
         stroke-linejoin="round"
         stroke-width="2"
         id="path571" /><path
         d="m 1049.623,251.5 c 0,0 4.854,0.038 4.854,-7.137 v -31 c 0,0 0.833,-4.011 4.277,-4.011 h -32.668 c 0,0 -3.609,1.141 -3.609,4.3 v 30.7"
         fill="none"
         stroke="#231f20"
         stroke-linecap="round"
         stroke-linejoin="round"
         stroke-width="2"
         id="path573" /><path
         d="m 1054.477,216.36 h 9 v -2.775 c 0,0 -0.386,-4.422 -4.5,-4.422"
         fill="none"
         stroke="#231f20"
         stroke-linecap="round"
         stroke-linejoin="round"
         stroke-width="2"
         id="path575" /><line
         x2="19"
         transform="translate(1028.477,232.36)"
         stroke-width="1"
         stroke="#231f20"
         stroke-linecap="round"
         stroke-linejoin="round"
         fill="none"
         id="line577"
         x1="0"
         y1="0"
         y2="0" /><line
         x2="19"
         transform="translate(1028.477,236.36)"
         stroke-width="2"
         stroke="#231f20"
         stroke-linecap="round"
         stroke-linejoin="round"
         fill="none"
         id="line579"
         x1="0"
         y1="0"
         y2="0" /><line
         x2="19"
         transform="translate(1028.477,224.36)"
         stroke-width="2"
         stroke="#231f20"
         stroke-linecap="round"
         stroke-linejoin="round"
         fill="none"
         id="line581"
         x1="0"
         y1="0"
         y2="0" /><line
         x2="19"
         transform="translate(1028.477,220.36)"
         stroke-width="1"
         stroke="#231f20"
         stroke-linecap="round"
         stroke-linejoin="round"
         fill="none"
         id="line583"
         x1="0"
         y1="0"
         y2="0" /><line
         x2="19"
         transform="translate(1028.477,228.36)"
         stroke-width="1"
         stroke="#231f20"
         stroke-linecap="round"
         stroke-linejoin="round"
         fill="none"
         id="line585"
         x1="0"
         y1="0"
         y2="0" /></g></g><g
     inkscape:groupmode="layer"
     id="layer8"
     inkscape:label="Layer 7"
     transform="translate(-36.2821,-133.74325)"><g
       style="fill:none;stroke:currentColor;stroke-width:2;stroke-linecap:round;stroke-linejoin:round"
       id="g2512"
       transform="matrix(3.4436651,0,0,3.146036,41.57803,126.45571)"><path
         d="m 2,3 h 6 a 4,4 0 0 1 4,4 V 21 A 3,3 0 0 0 9,18 H 2 Z"
         id="path2500"
         style="stroke-width:1.36716;stroke-dasharray:none" /><path
         d="m 22,3 h -6 a 4,4 0 0 0 -4,4 v 14 a 3,3 0 0 1 3,-3 h 7 z"
         id="path2502"
         inkscape:label="path2502"
         style="stroke-width:1.36716;stroke-dasharray:none" /></g></g><g
     inkscape:groupmode="layer"
     id="layer2"
     inkscape:label="Layer 2"
     style="display:inline"
     transform="translate(-26.314374,-138.21917)"><g
       style="fill:none"
       id="g246"
       transform="matrix(2.3086125,1.6436811,-1.6170701,2.2712362,19.249407,87.569842)"
       inkscape:transform-center-x="-0.61984421"
       inkscape:transform-center-y="2.3002809"><path
         d="m 42.9999,19.9757 -0.9825,3.9576 -8.7059,6.307 0.0501,11.7173 6.6383,0.0426 -0.3726,-8.4855 c 6.9214,-4.3288 10.3822,-7.5003 10.3822,-9.5145 0,-2.0142 0,-7.328 0,-17.94144"
         stroke="#000000"
         stroke-width="2"
         stroke-linecap="round"
         stroke-linejoin="round"
         id="path233"
         style="stroke-width:1.49417;stroke-dasharray:none" /></g></g><g
     inkscape:groupmode="layer"
     id="layer9"
     inkscape:label="Layer 8"
     style="display:none"
     transform="translate(-26.843541,-141.92334)"><path
       d="m 142.48249,85.192892 10.23209,5.01119 29.05525,-6.16927 25.31761,20.648038 -12.83231,14.22741 -16.65314,-15.22986 c -20.85171,7.38822 -33.42819,9.2135 -37.73,5.47611 -4.3016,-3.7372 -16.19468,-14.069838 -39.888469,-34.654848"
       stroke="#000000"
       stroke-width="2"
       stroke-linecap="round"
       stroke-linejoin="round"
       id="path235"
       inkscape:label="path235"
       style="display:inline;fill:none;stroke-width:3.99999;stroke-dasharray:none" /></g></svg>
