<?xml version="1.0" encoding="UTF-8" standalone="no"?>
<svg
   width="512px"
   height="512px"
   viewBox="0 0 512 512"
   version="1.1"
   id="svg12"
   sodipodi:docname="kakao.svg"
   inkscape:version="1.2.1 (9c6d41e410, 2022-07-14)"
   xmlns:inkscape="http://www.inkscape.org/namespaces/inkscape"
   xmlns:sodipodi="http://sodipodi.sourceforge.net/DTD/sodipodi-0.dtd"
   xmlns="http://www.w3.org/2000/svg"
   xmlns:svg="http://www.w3.org/2000/svg">
  <defs
     id="defs16" />
  <sodipodi:namedview
     id="namedview14"
     pagecolor="#ffffff"
     bordercolor="#000000"
     borderopacity="0.25"
     inkscape:showpageshadow="2"
     inkscape:pageopacity="0.0"
     inkscape:pagecheckerboard="0"
     inkscape:deskcolor="#d1d1d1"
     showgrid="false"
     inkscape:zoom="0.4609375"
     inkscape:cx="71.59322"
     inkscape:cy="256"
     inkscape:window-width="2560"
     inkscape:window-height="1506"
     inkscape:window-x="-11"
     inkscape:window-y="-11"
     inkscape:window-maximized="1"
     inkscape:current-layer="svg12" />
  <path
     fill="currentColor"
     d="M255.5 48C299.345 48 339.897 56.5332 377.156 73.5996C414.415 90.666 443.871 113.873 465.522 143.22C487.174 172.566 498 204.577 498 239.252C498 273.926 487.174 305.982 465.522 335.42C443.871 364.857 414.46 388.109 377.291 405.175C340.122 422.241 299.525 430.775 255.5 430.775C241.607 430.775 227.262 429.781 212.467 427.795C148.233 472.402 114.042 494.977 109.892 495.518C107.907 496.241 106.012 496.15 104.208 495.248C103.486 494.706 102.945 493.983 102.584 493.08C102.223 492.177 102.043 491.365 102.043 490.642V489.559C103.126 482.515 111.335 453.169 126.672 401.518C91.8486 384.181 64.1974 361.2 43.7185 332.575C23.2395 303.951 13 272.843 13 239.252C13 204.577 23.8259 172.566 45.4777 143.22C67.1295 113.873 96.5849 90.666 133.844 73.5996C171.103 56.5332 211.655 48 255.5 48Z"
     id="path10"
     style="fill:#3a1d1d;fill-opacity:1" />
</svg>
